<svg width="86" height="71" viewBox="0 0 86 71" fill="none" xmlns="http://www.w3.org/2000/svg">
<g filter="url(#filter0_d)">
<circle cx="29.983" cy="55.5" r="7.5" fill="white"/>
<circle cx="63.9821" cy="55.5" r="7.5" fill="white"/>
<path fill-rule="evenodd" clip-rule="evenodd" d="M15.062 0H68C68 0 82 14.812 82 33.688V48.938C82 48.938 81.812 53 78.875 53.001H77.166C75.992 46.74 70.507 42.001 63.906 42.001C57.306 42.001 51.82 46.74 50.646 53.001H43.242C42.068 46.74 36.583 42.001 29.983 42.001C23.383 42.001 17.897 46.74 16.724 53.001H14.625C14.625 53.001 12.061 52.377 12.061 49.189V33.574L26.812 32.814C26.812 32.814 32.295 32.211 33.102 29.058L9.446 27.804C7.58204 27.804 6.071 26.293 6.071 24.429C6.071 22.565 7.58204 21.054 9.446 21.054H18.502L26.812 20.626C26.812 20.626 34.989 20.018 35.75 16.821L35.554 16.778L7.469 14.938C5.55312 14.938 4 13.3849 4 11.469C4 9.55312 5.55312 8 7.469 8H12.062V3.125C12.062 3.125 11.874 0 15.062 0ZM56 8.938V23.938H71.812L66.062 8.938H56Z" fill="white"/>
</g>
<defs>
<filter id="filter0_d" x="0" y="0" width="86" height="71" filterUnits="userSpaceOnUse" color-interpolation-filters="sRGB">
<feFlood flood-opacity="0" result="BackgroundImageFix"/>
<feColorMatrix in="SourceAlpha" type="matrix" values="0 0 0 0 0 0 0 0 0 0 0 0 0 0 0 0 0 0 127 0"/>
<feOffset dy="4"/>
<feGaussianBlur stdDeviation="2"/>
<feColorMatrix type="matrix" values="0 0 0 0 0 0 0 0 0 0 0 0 0 0 0 0 0 0 0.25 0"/>
<feBlend mode="normal" in2="BackgroundImageFix" result="effect1_dropShadow"/>
<feBlend mode="normal" in="SourceGraphic" in2="effect1_dropShadow" result="shape"/>
</filter>
</defs>
</svg>
