<svg width="12" height="12" viewBox="0 0 12 12" fill="none" xmlns="http://www.w3.org/2000/svg">
<path d="M11.12 2.00001C11.1964 2.07519 11.2394 2.17786 11.2394 2.28501C11.2394 2.39215 11.1964 2.49482 11.12 2.57001L8.00004 5.71001C7.9237 5.78519 7.88071 5.88786 7.88071 5.99501C7.88071 6.10215 7.9237 6.20482 8.00004 6.28001L11.14 9.42001C11.2164 9.49519 11.2594 9.59786 11.2594 9.70501C11.2594 9.81215 11.2164 9.91482 11.14 9.99001L10 11.13C9.84112 11.2837 9.58897 11.2837 9.43004 11.13L6.27004 8.00001C6.11112 7.84633 5.85897 7.84633 5.70004 8.00001L2.56004 11.12C2.40112 11.2737 2.14897 11.2737 1.99004 11.12L0.850044 10C0.773701 9.92482 0.730713 9.82215 0.730713 9.715C0.730713 9.60786 0.773701 9.50519 0.850044 9.43001L4.00004 6.28001C4.07639 6.20482 4.11938 6.10215 4.11938 5.99501C4.11938 5.88786 4.07639 5.78519 4.00004 5.71001L0.850044 2.57001C0.773701 2.49482 0.730713 2.39215 0.730713 2.28501C0.730713 2.17786 0.773701 2.07519 0.850044 2.00001L2.00004 0.860005C2.15897 0.706333 2.41112 0.706333 2.57004 0.860005L5.70004 4.00001C5.77523 4.07635 5.8779 4.11934 5.98504 4.11934C6.09219 4.11934 6.19486 4.07635 6.27004 4.00001L9.41004 0.870005C9.56897 0.716333 9.82112 0.716333 9.98004 0.870005L11.12 2.00001Z" fill="black"/>
</svg>
