<svg width="13" height="15" viewBox="0 0 13 15" fill="none" xmlns="http://www.w3.org/2000/svg">
<path fill-rule="evenodd" clip-rule="evenodd" d="M10.25 6.56V3.75C10.25 1.67893 8.57106 0 6.5 0C4.42893 0 2.75 1.67893 2.75 3.75V6.56C1.7117 6.56 0.869995 7.4017 0.869995 8.44V13.13C0.869988 13.6277 1.06838 14.1049 1.42124 14.4558C1.7741 14.8068 2.25231 15.0027 2.75 15H10.25C11.2883 15 12.13 14.1583 12.13 13.12V8.44C12.1245 7.40561 11.2844 6.56999 10.25 6.57V6.56ZM7 11.11V12.66C7 12.9196 6.78957 13.13 6.53 13.13C6.27042 13.13 6.06 12.9196 6.06 12.66V11.11C5.77357 10.9494 5.59445 10.6483 5.59 10.32C5.55301 9.96287 5.7227 9.61586 6.02728 9.42576C6.33186 9.23565 6.71813 9.23565 7.02271 9.42576C7.32729 9.61586 7.49698 9.96287 7.46 10.32C7.45554 10.6483 7.27642 10.9494 6.99 11.11H7ZM4.63 6.56H8.37H8.38V3.75C8.38 2.71447 7.54053 1.875 6.505 1.875C5.46946 1.875 4.63 2.71447 4.63 3.75V6.56Z" fill="black"/>
</svg>
