<svg width="13" height="13" viewBox="0 0 13 13" fill="none" xmlns="http://www.w3.org/2000/svg">
<path d="M12.31 10.5C12.1627 10.003 11.8573 9.56757 11.44 9.26001C10.594 8.76054 9.68627 8.37392 8.73996 8.11001C8.51462 8.03826 8.2969 7.94447 8.08996 7.83002C7.92659 7.70334 7.82188 7.51558 7.79996 7.31001C7.79377 7.20677 7.79377 7.10326 7.79996 7.00001C8.49832 5.9144 8.86975 4.65086 8.86996 3.36001C8.97457 2.69084 8.75622 2.01164 8.28125 1.52879C7.80628 1.04593 7.13076 0.816433 6.45996 0.910015C5.78123 0.798514 5.09028 1.02005 4.60292 1.50542C4.11557 1.9908 3.89122 2.68084 3.99996 3.36001C4.02445 4.69893 4.45321 5.99916 5.22996 7.09001V7.30001C5.20918 7.50594 5.10423 7.69412 4.93996 7.82001C4.7331 7.93465 4.51536 8.02844 4.28996 8.10002C3.34444 8.35706 2.4367 8.73697 1.58996 9.23001C1.17156 9.54937 0.86662 9.99451 0.719956 10.5C0.561385 11.0215 0.487116 11.5651 0.499956 12.11H12.53C12.5428 11.5651 12.4685 11.0215 12.31 10.5Z" fill="black"/>
</svg>
