<svg width="112" height="24" viewBox="0 0 112 24" fill="none" xmlns="http://www.w3.org/2000/svg">
<path fill-rule="evenodd" clip-rule="evenodd" d="M13.9299 8.17C18.9299 6.5 19.2699 0.290001 14.3799 0.290001C12.6153 0.471939 11.0749 1.56468 10.3199 3.17L3.71994 14.59C3.44587 15.0873 3.12794 15.5592 2.76994 16C1.94093 14.8628 1.60419 13.4399 1.83555 12.0518C2.06691 10.6636 2.84691 9.42687 3.99994 8.62L2.99994 7.37C-2.14006 10.65 -0.630059 20.12 7.99994 20.12C15.2599 20.12 18.6599 11.31 13.9299 8.17ZM7.86994 18.23C6.63592 18.261 5.41534 17.9679 4.32994 17.38C4.78835 16.8322 5.1998 16.2468 5.55994 15.63L9.68994 8.48L10.3499 8.55C16.1099 9.76 13.8199 18.23 7.86994 18.23ZM12.5099 3.6L10.5099 7C12.9999 7 14.4099 6.45 15.3599 4.6C16.5899 2.33 14.2999 0.510001 12.5099 3.6Z" fill="white"/>
<path fill-rule="evenodd" clip-rule="evenodd" d="M109.91 13.56L110.08 13.37C110.517 13.516 110.865 13.8499 111.03 14.28C109.02 16.61 106.68 18.74 103.12 18.81H102.98C101.724 18.8594 100.604 18.0266 100.29 16.81L101.68 16.15C101.853 16.4786 102.194 16.6844 102.565 16.6844C102.936 16.6844 103.277 16.4786 103.45 16.15L107.16 9.73C107.8 8.62 106.08 7.25 103.34 10.98L96 23.75H93.53L98 16C97.1555 16.3741 96.2435 16.5715 95.32 16.58H94.78C92.12 19.94 87.78 19.33 87.78 16.2C86.26 17.66 84.69 18.73 83.26 18.73C81.28 18.73 80.58 17.05 81.58 15.24L84.77 9.69C85.84 7.87 84.16 7.26 80.38 12L76.64 18.53H74.16L75 17.06C73.8981 17.9174 72.6043 18.4939 71.23 18.74H71.16C70.9334 18.7516 70.7065 18.7516 70.48 18.74C69.2281 18.7846 68.1135 17.9528 67.8 16.74L69.33 15.94C69.5097 16.4394 69.9616 16.79 70.49 16.84C72.0224 16.84 72.309 14.8588 72.6102 12.777C72.767 11.6935 72.9277 10.5828 73.27 9.71C73.0814 9.95928 72.8759 10.2358 72.6555 10.5324C71.8592 11.6039 70.8687 12.9368 69.78 14.19C67.74 16.55 65.37 18.72 63.38 18.72C61.39 18.72 60.7 17.05 61.7 15.23L64.3 10.72C64.5525 10.2738 64.4964 9.71688 64.16 9.33L63.83 8.93C61.87 11.59 60.95 12.82 59.77 14.19C57.74 16.55 54.98 18.72 52.19 18.72C50.02 18.72 48.73 17.37 48.86 15.6C47.869 16.1896 46.751 16.5325 45.6 16.6C45.4202 16.6117 45.2398 16.6117 45.06 16.6C44.094 17.9667 42.5517 18.8116 40.88 18.89C40.1465 18.9616 39.4175 18.7161 38.8767 18.2154C38.3359 17.7148 38.0351 17.0068 38.05 16.27C36.54 17.72 34.97 18.79 33.54 18.79C31.55 18.79 30.86 17.12 31.86 15.3L34.46 10.79C34.7125 10.3438 34.6564 9.78688 34.32 9.4L34 9C33.3827 9.80858 32.8731 10.4848 32.4294 11.0735L32.429 11.0741L32.4285 11.0747L32.4284 11.0748C31.4349 12.3931 30.7717 13.2731 29.97 14.22C27.93 16.58 25.57 18.75 23.57 18.75C22.5424 18.8871 21.5945 18.1751 21.44 17.15C20.5072 18.0336 19.3154 18.5945 18.04 18.75C16.05 18.75 15.36 17.08 16.36 15.26L19.8 9.31C20.65 7.73397 22.2201 6.67607 24 6.48C25.4044 6.46889 26.5535 7.59557 26.57 9H28L24.03 15.9C23.46 16.86 23.77 17.24 24.31 17.24C25.4 17.24 27.12 15.61 28.89 13.56L29.06 13.37C30.5451 11.6157 31.9096 9.6977 32.9695 8.20779L32.9696 8.20776L33.21 7.87L33 7.59C32.09 6.45 32.21 5.06 33.6 3.81L34.87 5.2C34.661 5.36834 34.5284 5.61359 34.5021 5.88064C34.4758 6.14768 34.5579 6.4141 34.73 6.62L36.11 8.27C37.0581 9.12865 37.2089 10.563 36.46 11.6L34.01 15.9C33.44 16.86 33.75 17.24 34.29 17.24C35.38 17.24 37.1 15.61 38.87 13.56L39 13.41L45.87 1.5H48.37L45.25 6.91C45.7168 6.57306 46.2744 6.38486 46.85 6.37C47.4452 6.3352 48.0272 6.55508 48.4507 6.97479C48.8742 7.3945 49.0994 7.97446 49.07 8.57C49.0025 9.56875 48.6862 10.5347 48.15 11.38L45.84 15.38C47.2737 15.3072 48.6148 14.6493 49.55 13.56L49.7 13.39L52.04 9.28C52.923 7.55032 54.6979 6.45839 56.64 6.45C58.64 6.45 59.96 8.18 58.64 10.45L58.29 11.06C56.45 14.24 53.47 14.55 51.89 13.89L51.65 14.31C50.52 16.3 51.42 17.24 52.93 17.24C54.69 17.24 56.92 15.61 58.69 13.56L58.86 13.37C60.3451 11.6157 61.7096 9.69762 62.7696 8.20769L63.01 7.87L62.8 7.59C61.92 6.45 62 5.06 63.44 3.81L64.71 5.2C64.501 5.36834 64.3684 5.61359 64.3421 5.88064C64.3158 6.14768 64.3979 6.4141 64.57 6.62L65.91 8.25C66.8581 9.10865 67.0089 10.543 66.26 11.58L63.8 15.88C63.23 16.84 63.54 17.22 64.08 17.22C65.17 17.22 66.89 15.59 68.66 13.54L68.83 13.35C70.7462 11.1057 72.67 8.40692 73.8036 6.81649L73.8038 6.81627L73.8038 6.8162C73.9834 6.56424 74.1432 6.3401 74.28 6.15L76.13 7.15C75.2129 9.06304 74.9118 11.1347 74.642 12.9908C74.4676 14.191 74.3063 15.3011 74 16.22C75.1089 15.4683 76.1142 14.5739 76.99 13.56L77.13 13.4L84 1.53H86.41L82.49 8.35C83.33 7.28968 84.5639 6.61501 85.91 6.48C87.23 6.48 88.29 7.82 87.23 9.69L83.69 15.9C83.12 16.86 83.43 17.24 83.97 17.24C85.06 17.24 86.78 15.61 88.55 13.56L88.68 13.41L89.68 11.69L90.88 9.59C92.3 7.14 93.76 6.38 95.65 6.38C97.97 6.38 99.34 8.81 97.85 11.38L95.53 15.38C96.9622 15.3014 98.3012 14.6446 99.24 13.56L99.41 13.37L103.25 6.71H105.71L105.21 7.56C107.71 5.32 111.42 6.62 109.13 10.51L106.42 15.16C106.315 15.3474 106.208 15.5556 106.095 15.7753C105.895 16.165 105.676 16.5907 105.42 17C107.179 16.2432 108.722 15.0611 109.91 13.56ZM56.63 10.44C58.1 7.92 55.6 7.49 54.18 9.92L52.6 12.68C53.52 13.05 55.1 13.05 56.28 11.05L56.63 10.44ZM22.72 13.79C21.23 16.13 19.72 17.24 18.72 17.24C18.18 17.24 17.87 16.86 18.44 15.9L21.86 9.9C23.18 7.61 25.8 8.2 24.6 10.42L22.72 13.79ZM40.4895 16.8938C40.6805 17.0733 40.9389 17.1629 41.2 17.14C41.9722 17.0969 42.6711 16.6686 43.06 16C42.1885 15.4087 41.6188 14.4664 41.5 13.42L40.63 14.93C40.3844 15.3116 40.2367 15.7478 40.2 16.2C40.1933 16.462 40.2986 16.7144 40.4895 16.8938ZM43.77 14.76C43.0963 14.226 42.7235 13.3984 42.77 12.54C42.77 10.79 44.47 7.94 45.86 7.94C46.1227 7.9518 46.3685 8.07317 46.5377 8.27461C46.7068 8.47606 46.7838 8.73915 46.75 9C46.7224 9.51917 46.5605 10.0223 46.28 10.46L43.77 14.76ZM94.07 13.53H94.19L96.02 10.44C97.5 7.89 95.14 6.73 93.42 9.66L92.24 11.66L90.37 14.89C88.87 17.43 91.71 17.83 92.87 15.83C92.7163 15.5802 92.6333 15.2933 92.63 15C92.6246 14.6137 92.7737 14.2413 93.044 13.9653C93.3143 13.6893 93.6836 13.5326 94.07 13.53Z" fill="white"/>
</svg>
